<svg xmlns="http://www.w3.org/2000/svg" viewBox="0 0 237.6 151"><path fill="#74C6C7" d="M85 30.5C84.3 15.6 72 3.9 57 3.9S29.8 15.6 29 30.5l1.3.1H29v51.9h2.7V30.6c.7-13.5 11.8-24 25.4-24s24.6 10.6 25.3 24.1v72.7H85V30.5l-1.3.1 1.3-.1z"/><path fill="#74C6C7" d="M81 30.5C80.3 17.8 69.8 7.8 57.1 7.8c-12.8 0-23.3 10-23.9 22.7l1.3.1h-1.3v67.7h2.7V30.6c.6-11.3 9.9-20.2 21.2-20.2s20.7 8.9 21.2 20.2v72.7H81V30.5l-1.3.1 1.3-.1z"/><path fill="#74C6C7" d="M76.9 30.5c-.6-10.5-9.3-18.8-19.8-18.8-10.6 0-19.3 8.3-19.8 18.8l1.3.1h-1.3v62.9H40V30.6c.5-9.1 8-16.3 17.1-16.3 9.2 0 16.7 7.1 17.1 16.3v72.7h2.7V30.5l-1.3.1 1.3-.1z"/><path fill="#74C6C7" d="M72.8 30.5c-.4-8.4-7.3-14.9-15.7-14.9s-15.3 6.6-15.7 14.9l1.3.1h-1.3v72.7H44V30.6c.4-6.9 6.1-12.4 13-12.4 7 0 12.7 5.4 13 12.4v72.7h2.7l.1-72.8-1.3.1 1.3-.1z"/><path fill="#74C6C7" d="M102.2 0c-8.5 0-16.5 3.3-22.5 9.3C73.8 3.5 65.9 0 57.1 0 39.9 0 25.9 13.4 25 30.5l1.3.1H25V87h2.7V30.6c.8-15.7 13.7-28 29.4-28s28.6 12.3 29.4 28v72.7h2.7V30.6c.4-6.9 6.1-12.4 13-12.4 7 0 12.7 5.4 13 12.4v72.7h2.7V30c-.6-8.1-7.4-14.5-15.7-14.5-6.1 0-11.4 3.5-14 8.6-.2-.6-.3-1.2-.5-1.8 3.2-5 8.6-8 14.5-8 9.2 0 16.7 7.1 17.1 16.3v1.3h2.7V29h-.1c-1.2-9.8-9.6-17.3-19.6-17.3-6.2 0-11.9 2.8-15.6 7.7-.2-.5-.4-.9-.6-1.4 4.1-4.8 10-7.5 16.2-7.5 9.4 0 17.6 6.1 20.3 15.1l2.5-.8c-3.1-10.1-12.3-17-22.9-17-6.7 0-13.1 2.8-17.6 7.7-.2-.4-.5-.8-.7-1.1 4.8-5.1 11.3-7.8 18.3-7.8 9.9 0 19 5.9 23.1 14.9l2.4-1.1c-4.5-10-14.5-16.5-25.5-16.5-7.6 0-14.6 2.9-19.9 8.3-.3-.3-.6-.7-.8-1 5.6-5.5 12.9-8.5 20.7-8.5 10.8 0 20.8 5.9 25.9 15.5l2.3-1.3C124.8 6.5 114 0 102.2 0"/><path fill="#74C6C7" d="M119.3 71.7h2.7v31.6h-2.7zM123.4 79.4h2.7v23.9h-2.7zM127.5 84.7h2.7v18.6h-2.7zM131.6 88.9h2.7v14.3h-2.7z"/><g fill="#C6C6C6"><path d="M167.1 103.7c-28.6 0-51.9-23.3-51.9-51.9 0-28.6 23.3-51.9 51.9-51.9 17.2 0 33.3 8.5 43 22.8l-2.2 1.5c-9.2-13.6-24.4-21.7-40.8-21.7-27.1 0-49.2 22.1-49.2 49.2s22.1 49.2 49.2 49.2c18.3 0 35-10.1 43.6-26.3L213 76c-9 17.1-26.6 27.7-45.9 27.7"/><path d="M166.7 99.2c-26.1 0-47.3-21.2-47.3-47.3 0-26.1 21.2-47.3 47.3-47.3 12.2 0 23.9 4.7 32.7 13.1l-1.8 1.9c-8.3-8-19.3-12.4-30.9-12.4-24.6 0-44.7 20-44.7 44.7 0 24.6 20 44.7 44.7 44.7 14.8 0 28.6-7.3 37-19.6l2.2 1.5c-8.9 12.9-23.5 20.7-39.2 20.7"/><path d="M166.3 94.6c-23.6 0-42.8-19.2-42.8-42.8 0-23.6 19.2-42.8 42.8-42.8 6.8 0 13.3 1.5 19.3 4.6l-1.2 2.4c-5.6-2.8-11.7-4.3-18.1-4.3-22.1 0-40.1 18-40.1 40.1s18 40.1 40.1 40.1c6 0 11.8-1.3 17.1-3.8l1.1 2.4c-5.7 2.8-11.8 4.1-18.2 4.1"/><path d="M165.9 90.1c-21.1 0-38.2-17.1-38.2-38.2s17.1-38.2 38.2-38.2c12.2 0 23.4 5.6 30.7 15.4l-2.1 1.6c-6.8-9.1-17.2-14.3-28.5-14.3-19.6 0-35.6 16-35.6 35.6s16 35.6 35.6 35.6c13.2 0 25.3-7.3 31.5-19l2.3 1.2c-6.7 12.5-19.7 20.3-33.9 20.3"/><path d="M165.5 85.5c-18.6 0-33.7-15.1-33.7-33.7s15.1-33.7 33.7-33.7c12.4 0 23.7 6.8 29.6 17.6l-2.3 1.3c-5.4-10-15.9-16.2-27.3-16.2-17.1 0-31 13.9-31 31s13.9 31 31 31c8.5 0 16.5-3.4 22.4-9.5l1.9 1.8c-6.4 6.8-15 10.4-24.3 10.4"/></g><path fill="#74C6C7" d="M18.2 150.7V136l-5.8 11h-2.3l-5.8-11v14.7H0v-22.2h4.6l6.6 12.6 6.7-12.6h4.6v22.2M37.1 148c.7 0 1.4-.1 2-.4.6-.2 1.1-.6 1.5-1 .5-.4.7-.8.7-1.2v-1.9c-.5-.2-1-.3-1.6-.5-.6-.1-1.1-.2-1.7-.2-1.1 0-2 .2-2.7.7-.7.5-1 1.1-1 1.9 0 .7.3 1.3.8 1.8s1.2.8 2 .8m-1.2 3c-.8 0-1.5-.1-2.2-.4-.7-.3-1.3-.6-1.8-1.1-.5-.5-.9-1-1.2-1.6-.3-.6-.4-1.3-.4-2.1s.2-1.5.5-2.1c.3-.7.8-1.2 1.4-1.7.6-.5 1.4-.8 2.2-1.1.9-.3 1.8-.4 2.8-.4.7 0 1.4.1 2.1.2.7.1 1.3.3 1.9.5v-.9c0-1.1-.3-1.9-.9-2.5s-1.5-.9-2.7-.9c-.9 0-1.7.2-2.6.5-.8.3-1.7.8-2.6 1.4l-1.3-2.7c2.1-1.4 4.4-2.1 6.8-2.1 2.4 0 4.2.6 5.5 1.7 1.3 1.2 2 2.8 2 5v5.1c0 .4.1.8.3.9.2.2.5.3.9.3v3.6c-.4.1-.8.1-1.1.2h-.9c-.8 0-1.4-.2-1.8-.5-.4-.3-.7-.8-.8-1.4l-.1-.9c-.7 1-1.6 1.7-2.7 2.2-1 .6-2.1.8-3.3.8M59.9 148c.7 0 1.4-.1 2-.4.6-.2 1.1-.6 1.5-1 .5-.4.7-.8.7-1.2v-1.9c-.5-.2-1-.3-1.6-.5-.6-.1-1.1-.2-1.7-.2-1.1 0-2 .2-2.7.7-.7.5-1 1.1-1 1.9 0 .7.3 1.3.8 1.8s1.2.8 2 .8m-1.2 3c-.8 0-1.5-.1-2.2-.4-.7-.3-1.3-.6-1.8-1.1-.5-.5-.9-1-1.2-1.6-.3-.6-.4-1.3-.4-2.1s.2-1.5.5-2.1c.3-.7.8-1.2 1.4-1.7.6-.5 1.4-.8 2.2-1.1.9-.3 1.8-.4 2.8-.4.7 0 1.4.1 2.1.2.7.1 1.3.3 1.9.5v-.9c0-1.1-.3-1.9-.9-2.5s-1.5-.9-2.7-.9c-.9 0-1.7.2-2.6.5-.8.3-1.7.8-2.6 1.4l-1.3-2.7c2.1-1.4 4.4-2.1 6.8-2.1 2.4 0 4.2.6 5.5 1.7 1.3 1.2 2 2.8 2 5v5.1c0 .4.1.8.3.9.2.2.5.3.9.3v3.6c-.4.1-.8.1-1.1.2h-.9c-.8 0-1.4-.2-1.8-.5-.4-.3-.7-.8-.8-1.4l-.1-.9c-.7 1-1.6 1.7-2.7 2.2-1 .6-2.1.8-3.3.8M83.5 151c-.7 0-1.4-.1-2.1-.2-.7-.1-1.4-.3-2.1-.4-.7-.2-1.3-.4-2-.7-.6-.3-1.2-.6-1.7-.9l1.7-2.9c2.1 1.4 4.1 2 6.1 2 .9 0 1.6-.2 2.1-.5s.8-.8.8-1.4c0-.6-.3-1-.9-1.3-.6-.3-1.6-.6-3-.9-1.1-.3-2-.5-2.7-.8-.8-.3-1.4-.6-1.8-.9-.5-.4-.8-.8-1-1.2-.2-.5-.3-1-.3-1.6 0-.8.2-1.6.5-2.3.3-.7.8-1.2 1.4-1.7.6-.5 1.3-.8 2.1-1.1.8-.2 1.7-.4 2.6-.4 1.2 0 2.3.2 3.5.5 1.2.4 2.2.9 3.2 1.5l-1.7 2.6c-.9-.6-1.8-1-2.6-1.3-.8-.3-1.6-.4-2.4-.4-.8 0-1.4.1-1.9.4-.5.3-.8.8-.8 1.4 0 .6.2 1 .7 1.2.5.2 1.4.5 2.6.8 1.2.3 2.2.6 3 .9.8.3 1.5.6 2 1s.9.8 1.2 1.3c.2.5.4 1.1.4 1.8 0 .8-.2 1.5-.5 2.2-.3.6-.8 1.2-1.4 1.6-.6.4-1.3.8-2.1 1-.9.6-1.9.7-2.9.7"/><path fill="#C6C6C6" d="M100.4 139.4c0-1.3.2-2.7.7-4 .5-1.3 1.2-2.5 2.1-3.6.9-1 2-1.9 3.3-2.6 1.3-.7 2.8-1 4.5-1 2 0 3.7.5 5.1 1.4 1.4.9 2.4 2.1 3.1 3.5l-1.3.8c-.4-.8-.8-1.4-1.4-1.9-.5-.5-1.1-.9-1.7-1.3-.6-.3-1.3-.6-1.9-.7-.7-.1-1.3-.2-2-.2-1.4 0-2.7.3-3.8.9-1.1.6-2 1.3-2.8 2.2-.8.9-1.3 2-1.7 3.1-.4 1.2-.6 2.3-.6 3.5 0 1.3.2 2.6.7 3.8.5 1.2 1.1 2.2 1.9 3.2.8.9 1.7 1.6 2.8 2.2 1.1.5 2.3.8 3.5.8.7 0 1.4-.1 2.1-.3.7-.2 1.4-.4 2-.8.7-.4 1.3-.8 1.8-1.4.6-.6 1-1.2 1.4-2l1.3.7c-.4.8-.9 1.6-1.5 2.2-.6.6-1.4 1.2-2.1 1.6-.8.4-1.6.8-2.5 1-.9.2-1.8.3-2.6.3-1.5 0-2.9-.3-4.2-1-1.3-.7-2.4-1.5-3.3-2.6-.9-1.1-1.6-2.3-2.1-3.7-.5-1.2-.8-2.6-.8-4.1M132.8 151c-3.5 0-5.2-2.4-5.2-7.2v-9.4h1.6v9.2c0 4 1.4 6 4.1 6 .7 0 1.4-.1 2-.4.7-.2 1.3-.6 1.8-1 .6-.4 1.1-.9 1.5-1.6.4-.6.8-1.3 1-2v-10.3h1.6v14.1c0 .5.2.8.7.8v1.4h-.6c-.4 0-.8-.1-1.1-.4-.3-.3-.4-.6-.4-1v-2.5c-.7 1.3-1.7 2.3-2.9 3.1-1.3.9-2.6 1.2-4.1 1.2M151 127.8h1.6v19.7c0 .6.2 1.1.5 1.4.3.4.8.5 1.4.5.2 0 .5 0 .8-.1.3-.1.6-.1.9-.2l.3 1.3c-.4.1-.8.3-1.3.4-.5.1-1 .1-1.3.1-.9 0-1.6-.3-2.1-.8s-.8-1.2-.8-2.2v-20.1zM163.4 150.7h1.6v-16.3h-1.6v16.3zm0-20h1.6v-2.9h-1.6v2.9z"/><g fill="#C6C6C6"><path d="M187.8 150.7h-1.6v-9.1c0-2.1-.3-3.6-.9-4.6-.6-1-1.6-1.4-2.9-1.4-.7 0-1.4.1-2.1.4-.7.2-1.3.6-1.9 1.1-.6.5-1.1 1-1.5 1.6-.4.6-.8 1.3-1 2v10.1h-1.6v-16.3h1.4v3.9c.3-.6.8-1.2 1.3-1.7s1.1-1 1.7-1.3c.6-.4 1.3-.6 2-.8.7-.2 1.4-.3 2.1-.3 1.8 0 3 .6 3.8 1.9.7 1.2 1.1 3 1.1 5.3v9.2zM201.5 149.8c1.2 0 2.3-.2 3.4-.7 1-.4 1.8-1.1 2.3-1.8.4-.4.5-.8.5-1.3v-2.9c-1.6-.6-3.2-.9-4.9-.9-1.6 0-2.9.3-4 1-1 .7-1.5 1.5-1.5 2.6 0 .5.1 1.1.3 1.5.2.5.5.9.9 1.2.4.3.8.6 1.3.8.6.4 1.1.5 1.7.5m-.3 1.2c-.8 0-1.5-.1-2.1-.4-.7-.3-1.2-.6-1.7-1.1-.5-.4-.9-1-1.1-1.6-.3-.6-.4-1.3-.4-2s.2-1.4.5-1.9c.3-.6.8-1.1 1.4-1.5.6-.4 1.3-.8 2.2-1 .8-.2 1.7-.4 2.7-.4.9 0 1.8.1 2.7.2.9.2 1.7.4 2.4.6v-1.6c0-1.5-.4-2.8-1.3-3.7-.9-.9-2.1-1.4-3.6-1.4-.8 0-1.7.2-2.6.5-.9.3-1.8.8-2.7 1.4l-.6-1.1c2.1-1.4 4.1-2.1 6-2.1 2 0 3.5.6 4.7 1.7 1.1 1.1 1.7 2.7 1.7 4.7v8c0 .5.2.8.7.8v1.4h-.6c-.4 0-.7-.1-1-.4-.3-.3-.5-.6-.5-1V148c-.8 1-1.7 1.7-2.9 2.3-1.3.5-2.5.7-3.9.7"/></g><path fill="#C6C6C6" d="M218.8 150.7h1.6v-16.3h-1.6v16.3zm0-20h1.6v-2.9h-1.6v2.9z"/><g><path fill="#C6C6C6" d="M237.6 135.8c-1.5 0-2.8.5-3.9 1.3s-1.9 2-2.3 3.4v10.2h-1.6v-16.3h1.5v4c.6-1.1 1.3-2.1 2.2-2.8.9-.7 1.9-1.1 3-1.2h1v1.4z"/></g></svg>