<svg xmlns="http://www.w3.org/2000/svg" viewBox="0 0 237.6 23.2"><path fill="#FDFDFD" d="M18.2 22.9V8.2l-5.8 10.9h-2.3L4.3 8.2v14.7H0V.6h4.6l6.6 12.7L17.9.6h4.6v22.3"/><g fill="#FDFDFD"><path d="M37.1 20.1c.7 0 1.4-.1 2-.4.6-.2 1.1-.6 1.5-1 .5-.4.7-.8.7-1.2v-1.9c-.5-.2-1-.3-1.6-.5-.6 0-1.2-.1-1.7-.1-1.1 0-2 .2-2.7.7-.7.5-1 1.1-1 1.9 0 .7.3 1.3.8 1.8s1.2.7 2 .7m-1.2 3.1c-.8 0-1.5-.1-2.2-.4-.7-.3-1.3-.6-1.8-1.1-.5-.5-.9-1-1.2-1.6-.3-.6-.4-1.3-.4-2.1s.2-1.5.5-2.1c.3-.7.8-1.2 1.4-1.7.6-.5 1.4-.8 2.2-1.1.9-.3 1.8-.4 2.8-.4.7 0 1.4.1 2.1.2.7.1 1.3.3 1.9.5v-.9c0-1.1-.3-1.9-.9-2.5-.6-.6-1.5-.9-2.7-.9-.9 0-1.7.2-2.6.5-.8.3-1.7.8-2.6 1.4l-1.3-2.7c2.1-1.4 4.4-2.1 6.8-2.1 2.4 0 4.2.6 5.5 1.7 1.3 1.2 2 2.8 2 5V18c0 .4.1.8.3.9.2.2.5.3.9.3v3.6c-.4.1-.8.1-1.1.2h-.9c-.8 0-1.4-.2-1.8-.5-.4-.3-.7-.8-.8-1.4l-.1-.9c-.7 1-1.6 1.7-2.7 2.2-1 .6-2.1.8-3.3.8M59.9 20.1c.7 0 1.4-.1 2-.4.6-.2 1.1-.6 1.5-1 .5-.4.7-.8.7-1.2v-1.9c-.5-.2-1-.3-1.6-.5-.6-.1-1.1-.2-1.7-.2-1.1 0-2 .2-2.7.7-.7.5-1 1.1-1 1.9 0 .7.3 1.3.8 1.8.5.6 1.2.8 2 .8m-1.2 3.1c-.8 0-1.5-.1-2.2-.4-.7-.3-1.3-.6-1.8-1.1-.5-.5-.9-1-1.2-1.6-.3-.6-.4-1.3-.4-2.1s.2-1.5.5-2.1c.3-.7.8-1.2 1.4-1.7.6-.5 1.4-.8 2.2-1.1.9-.3 1.8-.4 2.8-.4.7 0 1.4.1 2.1.2.7.1 1.3.3 1.9.5v-.9c0-1.1-.3-1.9-.9-2.5-.6-.6-1.5-.9-2.7-.9-.9 0-1.7.2-2.6.5-.8.3-1.7.8-2.6 1.4L54 8.3c2.1-1.4 4.4-2.1 6.8-2.1 2.4 0 4.2.6 5.5 1.7 1.3 1.2 2 2.8 2 5V18c0 .4.1.8.3.9.2.2.5.3.9.3v3.6c-.5.2-.8.2-1.2.3h-.9c-.8 0-1.4-.2-1.8-.5-.4-.3-.7-.8-.8-1.4l-.1-.9c-.7 1-1.6 1.7-2.7 2.2-1 .5-2.1.7-3.3.7M83.5 23.2c-.7 0-1.4-.1-2.1-.2-.7-.1-1.4-.3-2.1-.4-.7-.2-1.3-.4-2-.7-.6-.3-1.2-.6-1.7-.9l1.7-2.9c2.1 1.4 4.1 2 6.1 2 .9 0 1.6-.2 2.1-.5s.8-.8.8-1.4c0-.6-.3-1-.9-1.3-.6-.3-1.6-.6-3-.9-1.1-.3-2-.5-2.7-.8-.8-.3-1.4-.6-1.8-.9-.5-.4-.8-.8-1-1.2-.2-.5-.3-1-.3-1.6 0-.8.2-1.6.5-2.3.3-.7.8-1.2 1.4-1.7.6-.5 1.3-.8 2.1-1.1.8-.2 1.7-.4 2.6-.4 1.2 0 2.3.2 3.5.5 1.2.4 2.2.9 3.2 1.5l-1.7 2.6c-.9-.6-1.8-1-2.6-1.3-.8-.3-1.6-.4-2.4-.4-.8 0-1.4.1-1.9.4-.5.3-.8.8-.8 1.4 0 .6.2 1 .7 1.2.5.2 1.4.5 2.6.8 1.2.3 2.2.6 3 .9.8.3 1.5.6 2 1s.9.8 1.2 1.3c.2.5.4 1.1.4 1.8 0 .8-.2 1.5-.5 2.2-.3.6-.8 1.2-1.4 1.6-.6.4-1.3.8-2.1 1-.9.6-1.9.7-2.9.7M100.4 11.6c0-1.3.2-2.7.7-4 .5-1.3 1.2-2.5 2.1-3.6.9-1 2-1.9 3.3-2.6 1.3-.7 2.8-1 4.5-1 2 0 3.7.5 5.1 1.4 1.4.9 2.4 2.1 3.1 3.5l-1.3.8c-.4-.8-.8-1.4-1.4-1.9-.5-.5-1.1-.9-1.7-1.3-.6-.3-1.3-.6-1.9-.7-.7-.1-1.3-.2-2-.2-1.4 0-2.7.3-3.8.9-1.1.6-2 1.3-2.8 2.2-.8.9-1.3 2-1.7 3.1-.4 1.2-.6 2.3-.6 3.5 0 1.3.2 2.6.7 3.8.5 1.2 1.1 2.2 1.9 3.2.8.9 1.7 1.6 2.8 2.2 1.1.5 2.3.8 3.5.8.7 0 1.4-.1 2.1-.3.7-.2 1.4-.4 2-.8.7-.4 1.3-.8 1.8-1.4.6-.6 1-1.2 1.4-2l1.3.7c-.4.8-.9 1.6-1.5 2.2-.6.6-1.4 1.2-2.1 1.6-.8.4-1.6.8-2.5 1-.9.2-1.8.3-2.6.3-1.5 0-2.9-.3-4.2-1-1.3-.7-2.4-1.5-3.3-2.6-.9-1.1-1.6-2.3-2.1-3.7-.5-1.3-.8-2.7-.8-4.1M132.8 23.2c-3.5 0-5.2-2.4-5.2-7.2V6.6h1.6v9.2c0 4 1.4 6 4.1 6 .7 0 1.4-.1 2-.4.7-.2 1.3-.6 1.8-1 .6-.4 1.1-.9 1.5-1.6.4-.6.8-1.3 1-2V6.6h1.6v14.1c0 .5.2.8.7.8v1.4h-.6c-.4 0-.8-.1-1.1-.4-.3-.3-.4-.6-.4-1V19c-.7 1.3-1.7 2.3-2.9 3.1-1.3.7-2.6 1.1-4.1 1.1M151 0h1.6v19.7c0 .6.2 1.1.5 1.4.3.4.8.5 1.4.5.2 0 .5 0 .8-.1.3-.1.6-.1.9-.2l.3 1.3c-.4.1-.8.3-1.3.4-.5.1-1 .1-1.3.1-.9 0-1.6-.3-2.1-.8s-.8-1.2-.8-2.2V0z"/></g><path fill="#FDFDFD" d="M163.4 22.9h1.6V6.6h-1.6v16.3zm0-20h1.6V0h-1.6v2.9z"/><g fill="#FDFDFD"><path d="M187.8 22.9h-1.6v-9.1c0-2.1-.3-3.6-.9-4.6-.6-1-1.6-1.4-2.9-1.4-.7 0-1.4.1-2.1.4-.7.2-1.3.6-1.9 1.1-.6.5-1.1 1-1.5 1.6-.4.6-.8 1.3-1 2V23h-1.6V6.6h1.4v3.9c.3-.6.8-1.2 1.3-1.7s1.1-1 1.7-1.3c.6-.4 1.3-.6 2-.8.7-.2 1.4-.3 2.1-.3 1.8 0 3 .6 3.8 1.9.7 1.2 1.1 3 1.1 5.3v9.3zM201.5 21.9c1.2 0 2.3-.2 3.4-.7 1-.4 1.8-1.1 2.3-1.8.4-.4.5-.8.5-1.3v-2.9c-1.6-.6-3.2-.9-4.9-.9-1.6 0-2.9.3-4 1-1 .7-1.5 1.5-1.5 2.6 0 .5.1 1.1.3 1.5.2.5.5.9.9 1.2.4.3.8.6 1.3.8.6.4 1.1.5 1.7.5m-.3 1.3c-.8 0-1.5-.1-2.1-.4-.7-.3-1.2-.6-1.7-1.1-.5-.4-.9-1-1.1-1.6-.3-.6-.4-1.3-.4-2s.2-1.4.5-1.9c.3-.6.8-1.1 1.4-1.5.6-.4 1.3-.8 2.2-1 .8-.2 1.7-.4 2.7-.4.9 0 1.8.1 2.7.2.9.2 1.7.4 2.4.6v-1.6c0-1.5-.4-2.8-1.3-3.7-.9-.9-2.1-1.4-3.6-1.4-.8 0-1.7.2-2.6.5-.9.3-1.8.8-2.7 1.4l-.6-1.1c2.1-1.4 4.1-2.1 6-2.1 2 0 3.5.6 4.7 1.7 1.1 1.1 1.7 2.7 1.7 4.7v8c0 .5.2.8.7.8v1.4h-.6c-.4 0-.7-.1-1-.4-.3-.3-.5-.6-.5-1v-1.4c-.8 1-1.7 1.7-2.9 2.3-1.3.7-2.5 1-3.9 1"/></g><path fill="#FDFDFD" d="M218.8 22.9h1.6V6.6h-1.6v16.3zm0-20h1.6V0h-1.6v2.9zM237.6 8c-1.5 0-2.8.5-3.9 1.3s-1.9 2-2.3 3.4v10.2h-1.6V6.6h1.5v4c.6-1.1 1.3-2.1 2.2-2.8.9-.7 1.9-1.1 3-1.2h1V8z"/></svg>