<svg xmlns="http://www.w3.org/2000/svg" viewBox="0 0 188 103.7"><path fill="#FFF" d="M60 30.5C59.3 15.6 47 3.9 32 3.9S4.8 15.6 4.1 30.5l1.3.1H4.1v51.9h2.7V30.6c.6-13.5 11.7-24 25.3-24s24.6 10.6 25.3 24.1v72.7H60V30.5l-1.3.1 1.3-.1z"/><path fill="#FFF" d="M55.9 30.5C55.3 17.8 44.8 7.8 32.1 7.8c-12.8 0-23.3 10-23.9 22.7l1.3.1H8.2v67.7h2.7V30.6c.6-11.3 9.9-20.2 21.2-20.2s20.7 8.9 21.2 20.2v72.7H56l-.1-72.8-1.3.1 1.3-.1z"/><path fill="#FFF" d="M51.9 30.5c-.6-10.5-9.3-18.8-19.8-18.8-10.6 0-19.3 8.3-19.8 18.8l1.3.1h-1.3v62.9H15V30.6c.5-9.1 8-16.3 17.1-16.3 9.2 0 16.7 7.1 17.1 16.3v72.7h2.7V30.5l-1.3.1 1.3-.1z"/><path fill="#FFF" d="M47.8 30.5c-.4-8.4-7.3-14.9-15.7-14.9s-15.3 6.6-15.7 14.9l1.3.1h-1.3v72.7H19V30.6c.4-6.9 6.1-12.4 13-12.4 7 0 12.7 5.4 13 12.4v72.7h2.7l.1-72.8-1.3.1 1.3-.1z"/><path fill="#FFF" d="M77.2 0c-8.5 0-16.5 3.3-22.5 9.3C48.8 3.5 40.9 0 32.1 0 14.9 0 .8 13.4 0 30.5l1.3.1H0V87h2.7V30.6c.8-15.7 13.7-28 29.4-28s28.6 12.3 29.4 28v72.7h2.7V30.6c.4-6.9 6.1-12.4 13-12.4 7 0 12.7 5.4 13 12.4v72.7h2.7V30c-.6-8.1-7.4-14.5-15.7-14.5-6.1 0-11.4 3.5-14 8.6-.2-.6-.3-1.2-.5-1.8 3.2-5 8.6-8 14.5-8 9.2 0 16.7 7.1 17.1 16.3v1.3H97V29h-.1c-1.2-9.8-9.6-17.3-19.6-17.3-6.2 0-11.9 2.8-15.6 7.7-.2-.5-.4-.9-.6-1.4 4.1-4.8 10-7.5 16.2-7.5 9.4 0 17.6 6.1 20.3 15.1l2.5-.8c-3.1-10.1-12.3-17-22.9-17-6.7 0-13.1 2.8-17.6 7.7-.2-.4-.5-.8-.7-1.1 4.8-5.1 11.3-7.8 18.3-7.8 9.9 0 19 5.9 23.1 14.9l2.4-1.1c-4.5-10-14.5-16.5-25.5-16.5-7.6 0-14.6 2.9-19.9 8.3-.3-.3-.6-.7-.8-1C62 5.7 69.3 2.7 77.2 2.7 88 2.7 98 8.6 103.1 18.1l2.3-1.3C99.8 6.5 89 0 77.2 0"/><path fill="#FFF" d="M94.3 71.7H97v31.6h-2.7zM98.4 79.4h2.7v23.9h-2.7zM102.5 84.7h2.7v18.6h-2.7zM106.6 88.9h2.7v14.3h-2.7z"/><g fill="#FFF"><path d="M142.1 103.7c-28.6 0-51.9-23.3-51.9-51.9C90.2 23.3 113.5 0 142.1 0c17.2 0 33.3 8.5 43 22.8l-2.2 1.5c-9.2-13.6-24.4-21.7-40.8-21.7-27.1 0-49.2 22.1-49.2 49.2S115 101 142.1 101c18.3 0 35-10.1 43.6-26.3L188 76c-9 17.1-26.6 27.7-45.9 27.7"/><path d="M141.7 99.2c-26.1 0-47.3-21.2-47.3-47.3 0-26.1 21.2-47.3 47.3-47.3 12.2 0 23.9 4.7 32.7 13.1l-1.8 1.9c-8.3-8-19.3-12.4-30.9-12.4-24.6 0-44.7 20-44.7 44.7 0 24.6 20 44.7 44.7 44.7 14.8 0 28.6-7.3 37-19.6l2.2 1.5c-8.9 12.9-23.5 20.7-39.2 20.7"/><path d="M141.3 94.6c-23.6 0-42.8-19.2-42.8-42.8C98.5 28.2 117.7 9 141.3 9c6.8 0 13.3 1.5 19.3 4.6l-1.2 2.4c-5.6-2.8-11.7-4.3-18.1-4.3-22.1 0-40.1 18-40.1 40.1s18 40.1 40.1 40.1c6 0 11.8-1.3 17.1-3.8l1.1 2.4c-5.7 2.8-11.8 4.1-18.2 4.1"/><path d="M140.9 90.1c-21.1 0-38.2-17.1-38.2-38.2s17.1-38.2 38.2-38.2c12.2 0 23.4 5.6 30.7 15.4l-2.1 1.6c-6.8-9.1-17.2-14.3-28.5-14.3-19.6 0-35.6 16-35.6 35.6s16 35.6 35.6 35.6c13.2 0 25.3-7.3 31.5-19l2.3 1.2c-6.7 12.5-19.7 20.3-33.9 20.3"/><path d="M140.5 85.5c-18.6 0-33.7-15.1-33.7-33.7s15.1-33.7 33.7-33.7c12.4 0 23.7 6.8 29.6 17.6l-2.3 1.3c-5.4-10-15.9-16.2-27.3-16.2-17.1 0-31 13.9-31 31s13.9 31 31 31c8.5 0 16.5-3.4 22.4-9.5l1.9 1.8c-6.4 6.8-15 10.4-24.3 10.4"/></g></svg>