<?xml version="1.0" encoding="utf-8"?>
<!-- Generator: Adobe Illustrator 19.0.1, SVG Export Plug-In . SVG Version: 6.00 Build 0)  -->
<svg version="1.1" id="Layer_1" xmlns="http://www.w3.org/2000/svg" xmlns:xlink="http://www.w3.org/1999/xlink" x="0px" y="0px"
	 viewBox="0 0 237.6 151" enable-background="new 0 0 237.6 151" xml:space="preserve">
<path fill="#74C6C7" d="M85,30.5c-0.7-14.9-13-26.6-28-26.6s-27.2,11.7-28,26.6l1.3,0.1h-1.3v51.9h2.7V30.6
	C32.4,17.1,43.5,6.6,57.1,6.6s24.6,10.6,25.3,24.1v72.7H85L85,30.5l-1.3,0.1L85,30.5z"/>
<path fill="#74C6C7" d="M81,30.5C80.3,17.8,69.8,7.8,57.1,7.8c-12.8,0-23.3,10-23.9,22.7l1.3,0.1h-1.3v67.7h2.7V30.6
	c0.6-11.3,9.9-20.2,21.2-20.2s20.7,8.9,21.2,20.2v72.7H81L81,30.5l-1.3,0.1L81,30.5z"/>
<path fill="#74C6C7" d="M76.9,30.5C76.3,20,67.6,11.7,57.1,11.7c-10.6,0-19.3,8.3-19.8,18.8l1.3,0.1h-1.3v62.9h2.7V30.6
	c0.5-9.1,8-16.3,17.1-16.3c9.2,0,16.7,7.1,17.1,16.3v72.7h2.7L76.9,30.5l-1.3,0.1L76.9,30.5z"/>
<path fill="#74C6C7" d="M72.8,30.5c-0.4-8.4-7.3-14.9-15.7-14.9s-15.3,6.6-15.7,14.9l1.3,0.1h-1.3v72.7H44V30.6
	c0.4-6.9,6.1-12.4,13-12.4c7,0,12.7,5.4,13,12.4v72.7h2.7L72.8,30.5l-1.3,0.1L72.8,30.5z"/>
<path fill="#74C6C7" d="M102.2,0c-8.5,0-16.5,3.3-22.5,9.3C73.8,3.5,65.9,0,57.1,0C39.9,0,25.9,13.4,25,30.5l1.3,0.1H25V87h2.7V30.6
	c0.8-15.7,13.7-28,29.4-28c15.7,0,28.6,12.3,29.4,28v72.7h2.7V30.6c0.4-6.9,6.1-12.4,13-12.4c7,0,12.7,5.4,13,12.4v72.7h2.7V30h0
	c-0.6-8.1-7.4-14.5-15.7-14.5c-6.1,0-11.4,3.5-14,8.6c-0.2-0.6-0.3-1.2-0.5-1.8c3.2-5,8.6-8,14.5-8c9.2,0,16.7,7.1,17.1,16.3v1.3
	h2.7V29h-0.1c-1.2-9.8-9.6-17.3-19.6-17.3c-6.2,0-11.9,2.8-15.6,7.7c-0.2-0.5-0.4-0.9-0.6-1.4l0,0c4.1-4.8,10-7.5,16.2-7.5
	c9.4,0,17.6,6.1,20.3,15.1l2.5-0.8c-3.1-10.1-12.3-17-22.9-17c-6.7,0-13.1,2.8-17.6,7.7c-0.2-0.4-0.5-0.8-0.7-1.1
	c4.8-5.1,11.3-7.8,18.3-7.8c9.9,0,19,5.9,23.1,14.9l2.4-1.1c-4.5-10-14.5-16.5-25.5-16.5c-7.6,0-14.6,2.9-19.9,8.3
	c-0.3-0.3-0.6-0.7-0.8-1c5.6-5.5,12.9-8.5,20.7-8.5c10.8,0,20.8,5.9,25.9,15.5l2.3-1.3C124.8,6.5,114,0,102.2,0"/>
<rect x="119.3" y="71.7" fill="#74C6C7" width="2.7" height="31.6"/>
<rect x="123.4" y="79.4" fill="#74C6C7" width="2.7" height="23.9"/>
<rect x="127.5" y="84.7" fill="#74C6C7" width="2.7" height="18.6"/>
<rect x="131.6" y="88.9" fill="#74C6C7" width="2.7" height="14.3"/>
<g>
	<path fill="#C6C6C6" d="M167.1,103.7c-28.6,0-51.9-23.3-51.9-51.9c0-28.6,23.3-51.9,51.9-51.9c17.2,0,33.3,8.5,43,22.8l-2.2,1.5
		c-9.2-13.6-24.4-21.7-40.8-21.7c-27.1,0-49.2,22.1-49.2,49.2c0,27.1,22.1,49.2,49.2,49.2c18.3,0,35-10.1,43.6-26.3L213,76
		C204,93.1,186.4,103.7,167.1,103.7"/>
	<path fill="#C6C6C6" d="M166.7,99.2c-26.1,0-47.3-21.2-47.3-47.3c0-26.1,21.2-47.3,47.3-47.3c12.2,0,23.9,4.7,32.7,13.1l-1.8,1.9
		c-8.3-8-19.3-12.4-30.9-12.4c-24.6,0-44.7,20-44.7,44.7c0,24.6,20,44.7,44.7,44.7c14.8,0,28.6-7.3,37-19.6l2.2,1.5
		C197,91.4,182.4,99.2,166.7,99.2"/>
	<path fill="#C6C6C6" d="M166.3,94.6L166.3,94.6c-23.6,0-42.8-19.2-42.8-42.8c0-23.6,19.2-42.8,42.8-42.8c6.8,0,13.3,1.5,19.3,4.6
		l-1.2,2.4c-5.6-2.8-11.7-4.3-18.1-4.3c-22.1,0-40.1,18-40.1,40.1c0,22.1,18,40.1,40.1,40.1h0c6,0,11.8-1.3,17.1-3.8l1.1,2.4
		C178.8,93.3,172.7,94.6,166.3,94.6"/>
	<path fill="#C6C6C6" d="M165.9,90.1c-21.1,0-38.2-17.1-38.2-38.2c0-21.1,17.1-38.2,38.2-38.2c12.2,0,23.4,5.6,30.7,15.4l-2.1,1.6
		c-6.8-9.1-17.2-14.3-28.5-14.3c-19.6,0-35.6,16-35.6,35.6c0,19.6,16,35.6,35.6,35.6c13.2,0,25.3-7.3,31.5-19l2.3,1.2
		C193.1,82.3,180.1,90.1,165.9,90.1"/>
	<path fill="#C6C6C6" d="M165.5,85.5c-18.6,0-33.7-15.1-33.7-33.7s15.1-33.7,33.7-33.7c12.4,0,23.7,6.8,29.6,17.6l-2.3,1.3
		c-5.4-10-15.9-16.2-27.3-16.2c-17.1,0-31,13.9-31,31c0,17.1,13.9,31,31,31c8.5,0,16.5-3.4,22.4-9.5l1.9,1.8
		C183.4,81.9,174.8,85.5,165.5,85.5"/>
</g>
<polygon fill="#74C6C7" points="18.2,150.7 18.2,136 12.4,147 10.1,147 4.3,136 4.3,150.7 0,150.7 0,128.5 4.6,128.5 11.2,141.1 
	17.9,128.5 22.5,128.5 22.5,150.7 "/>
<g>
	<path fill="#74C6C7" d="M37.1,148c0.7,0,1.4-0.1,2-0.4c0.6-0.2,1.1-0.6,1.5-1c0.5-0.4,0.7-0.8,0.7-1.2v-1.9c-0.5-0.2-1-0.3-1.6-0.5
		c-0.6-0.1-1.1-0.2-1.7-0.2c-1.1,0-2,0.2-2.7,0.7c-0.7,0.5-1,1.1-1,1.9c0,0.7,0.3,1.3,0.8,1.8C35.6,147.7,36.3,148,37.1,148
		 M35.9,151c-0.8,0-1.5-0.1-2.2-0.4c-0.7-0.3-1.3-0.6-1.8-1.1c-0.5-0.5-0.9-1-1.2-1.6c-0.3-0.6-0.4-1.3-0.4-2.1
		c0-0.8,0.2-1.5,0.5-2.1c0.3-0.7,0.8-1.2,1.4-1.7c0.6-0.5,1.4-0.8,2.2-1.1c0.9-0.3,1.8-0.4,2.8-0.4c0.7,0,1.4,0.1,2.1,0.2
		c0.7,0.1,1.3,0.3,1.9,0.5v-0.9c0-1.1-0.3-1.9-0.9-2.5s-1.5-0.9-2.7-0.9c-0.9,0-1.7,0.2-2.6,0.5c-0.8,0.3-1.7,0.8-2.6,1.4l-1.3-2.7
		c2.1-1.4,4.4-2.1,6.8-2.1c2.4,0,4.2,0.6,5.5,1.7c1.3,1.2,2,2.8,2,5v5.1c0,0.4,0.1,0.8,0.3,0.9c0.2,0.2,0.5,0.3,0.9,0.3v3.6
		c-0.4,0.1-0.8,0.1-1.1,0.2c-0.3,0-0.6,0-0.9,0c-0.8,0-1.4-0.2-1.8-0.5c-0.4-0.3-0.7-0.8-0.8-1.4l-0.1-0.9c-0.7,1-1.6,1.7-2.7,2.2
		C38.2,150.8,37.1,151,35.9,151"/>
	<path fill="#74C6C7" d="M59.9,148c0.7,0,1.4-0.1,2-0.4c0.6-0.2,1.1-0.6,1.5-1c0.5-0.4,0.7-0.8,0.7-1.2v-1.9c-0.5-0.2-1-0.3-1.6-0.5
		c-0.6-0.1-1.1-0.2-1.7-0.2c-1.1,0-2,0.2-2.7,0.7c-0.7,0.5-1,1.1-1,1.9c0,0.7,0.3,1.3,0.8,1.8C58.4,147.7,59.1,148,59.9,148
		 M58.7,151c-0.8,0-1.5-0.1-2.2-0.4c-0.7-0.3-1.3-0.6-1.8-1.1c-0.5-0.5-0.9-1-1.2-1.6c-0.3-0.6-0.4-1.3-0.4-2.1
		c0-0.8,0.2-1.5,0.5-2.1c0.3-0.7,0.8-1.2,1.4-1.7c0.6-0.5,1.4-0.8,2.2-1.1c0.9-0.3,1.8-0.4,2.8-0.4c0.7,0,1.4,0.1,2.1,0.2
		c0.7,0.1,1.3,0.3,1.9,0.5v-0.9c0-1.1-0.3-1.9-0.9-2.5s-1.5-0.9-2.7-0.9c-0.9,0-1.7,0.2-2.6,0.5c-0.8,0.3-1.7,0.8-2.6,1.4l-1.3-2.7
		c2.1-1.4,4.4-2.1,6.8-2.1c2.4,0,4.2,0.6,5.5,1.7c1.3,1.2,2,2.8,2,5v5.1c0,0.4,0.1,0.8,0.3,0.9c0.2,0.2,0.5,0.3,0.9,0.3v3.6
		c-0.4,0.1-0.8,0.1-1.1,0.2c-0.3,0-0.6,0-0.9,0c-0.8,0-1.4-0.2-1.8-0.5c-0.4-0.3-0.7-0.8-0.8-1.4l-0.1-0.9c-0.7,1-1.6,1.7-2.7,2.2
		C61,150.8,59.9,151,58.7,151"/>
	<path fill="#74C6C7" d="M83.5,151c-0.7,0-1.4-0.1-2.1-0.2c-0.7-0.1-1.4-0.3-2.1-0.4c-0.7-0.2-1.3-0.4-2-0.7
		c-0.6-0.3-1.2-0.6-1.7-0.9l1.7-2.9c2.1,1.4,4.1,2,6.1,2c0.9,0,1.6-0.2,2.1-0.5c0.5-0.3,0.8-0.8,0.8-1.4c0-0.6-0.3-1-0.9-1.3
		c-0.6-0.3-1.6-0.6-3-0.9c-1.1-0.3-2-0.5-2.7-0.8c-0.8-0.3-1.4-0.6-1.8-0.9c-0.5-0.4-0.8-0.8-1-1.2c-0.2-0.5-0.3-1-0.3-1.6
		c0-0.8,0.2-1.6,0.5-2.3c0.3-0.7,0.8-1.2,1.4-1.7c0.6-0.5,1.3-0.8,2.1-1.1c0.8-0.2,1.7-0.4,2.6-0.4c1.2,0,2.3,0.2,3.5,0.5
		c1.2,0.4,2.2,0.9,3.2,1.5l-1.7,2.6c-0.9-0.6-1.8-1-2.6-1.3c-0.8-0.3-1.6-0.4-2.4-0.4c-0.8,0-1.4,0.1-1.9,0.4
		c-0.5,0.3-0.8,0.8-0.8,1.4c0,0.6,0.2,1,0.7,1.2c0.5,0.2,1.4,0.5,2.6,0.8c1.2,0.3,2.2,0.6,3,0.9c0.8,0.3,1.5,0.6,2,1
		c0.5,0.4,0.9,0.8,1.2,1.3c0.2,0.5,0.4,1.1,0.4,1.8c0,0.8-0.2,1.5-0.5,2.2c-0.3,0.6-0.8,1.2-1.4,1.6c-0.6,0.4-1.3,0.8-2.1,1
		C85.5,150.9,84.5,151,83.5,151"/>
	<path fill="#C6C6C6" d="M100.4,139.4c0-1.3,0.2-2.7,0.7-4c0.5-1.3,1.2-2.5,2.1-3.6c0.9-1,2-1.9,3.3-2.6c1.3-0.7,2.8-1,4.5-1
		c2,0,3.7,0.5,5.1,1.4c1.4,0.9,2.4,2.1,3.1,3.5l-1.3,0.8c-0.4-0.8-0.8-1.4-1.4-1.9c-0.5-0.5-1.1-0.9-1.7-1.3
		c-0.6-0.3-1.3-0.6-1.9-0.7c-0.7-0.1-1.3-0.2-2-0.2c-1.4,0-2.7,0.3-3.8,0.9c-1.1,0.6-2,1.3-2.8,2.2c-0.8,0.9-1.3,2-1.7,3.1
		c-0.4,1.2-0.6,2.3-0.6,3.5c0,1.3,0.2,2.6,0.7,3.8c0.5,1.2,1.1,2.2,1.9,3.2c0.8,0.9,1.7,1.6,2.8,2.2c1.1,0.5,2.3,0.8,3.5,0.8
		c0.7,0,1.4-0.1,2.1-0.3c0.7-0.2,1.4-0.4,2-0.8c0.7-0.4,1.3-0.8,1.8-1.4c0.6-0.6,1-1.2,1.4-2l1.3,0.7c-0.4,0.8-0.9,1.6-1.5,2.2
		c-0.6,0.6-1.4,1.2-2.1,1.6c-0.8,0.4-1.6,0.8-2.5,1c-0.9,0.2-1.8,0.3-2.6,0.3c-1.5,0-2.9-0.3-4.2-1c-1.3-0.7-2.4-1.5-3.3-2.6
		c-0.9-1.1-1.6-2.3-2.1-3.7C100.7,142.3,100.4,140.9,100.4,139.4"/>
	<path fill="#C6C6C6" d="M132.8,151c-3.5,0-5.2-2.4-5.2-7.2v-9.4h1.6v9.2c0,4,1.4,6,4.1,6c0.7,0,1.4-0.1,2-0.4
		c0.7-0.2,1.3-0.6,1.8-1c0.6-0.4,1.1-0.9,1.5-1.6c0.4-0.6,0.8-1.3,1-2v-10.3h1.6v14.1c0,0.5,0.2,0.8,0.7,0.8v1.4c-0.1,0-0.2,0-0.3,0
		h-0.3c-0.4,0-0.8-0.1-1.1-0.4c-0.3-0.3-0.4-0.6-0.4-1v-2.5c-0.7,1.3-1.7,2.3-2.9,3.1C135.6,150.7,134.3,151,132.8,151"/>
	<path fill="#C6C6C6" d="M151,127.8h1.6v19.7c0,0.6,0.2,1.1,0.5,1.4c0.3,0.4,0.8,0.5,1.4,0.5c0.2,0,0.5,0,0.8-0.1
		c0.3-0.1,0.6-0.1,0.9-0.2l0.3,1.3c-0.4,0.1-0.8,0.3-1.3,0.4c-0.5,0.1-1,0.1-1.3,0.1c-0.9,0-1.6-0.3-2.1-0.8
		c-0.5-0.5-0.8-1.2-0.8-2.2V127.8z"/>
</g>
<path fill="#C6C6C6" d="M163.4,150.7h1.6v-16.3h-1.6V150.7z M163.4,130.7h1.6v-2.9h-1.6V130.7z"/>
<g>
	<path fill="#C6C6C6" d="M187.8,150.7h-1.6v-9.1c0-2.1-0.3-3.6-0.9-4.6c-0.6-1-1.6-1.4-2.9-1.4c-0.7,0-1.4,0.1-2.1,0.4
		c-0.7,0.2-1.3,0.6-1.9,1.1c-0.6,0.5-1.1,1-1.5,1.6c-0.4,0.6-0.8,1.3-1,2v10.1h-1.6v-16.3h1.4v3.9c0.3-0.6,0.8-1.2,1.3-1.7
		c0.5-0.5,1.1-1,1.7-1.3c0.6-0.4,1.3-0.6,2-0.8c0.7-0.2,1.4-0.3,2.1-0.3c1.8,0,3,0.6,3.8,1.9c0.7,1.2,1.1,3,1.1,5.3V150.7z"/>
	<path fill="#C6C6C6" d="M201.5,149.8c1.2,0,2.3-0.2,3.4-0.7c1-0.4,1.8-1.1,2.3-1.8c0.4-0.4,0.5-0.8,0.5-1.3v-2.9
		c-1.6-0.6-3.2-0.9-4.9-0.9c-1.6,0-2.9,0.3-4,1c-1,0.7-1.5,1.5-1.5,2.6c0,0.5,0.1,1.1,0.3,1.5c0.2,0.5,0.5,0.9,0.9,1.2
		c0.4,0.3,0.8,0.6,1.3,0.8C200.4,149.7,200.9,149.8,201.5,149.8 M201.2,151c-0.8,0-1.5-0.1-2.1-0.4c-0.7-0.3-1.2-0.6-1.7-1.1
		c-0.5-0.4-0.9-1-1.1-1.6c-0.3-0.6-0.4-1.3-0.4-2c0-0.7,0.2-1.4,0.5-1.9c0.3-0.6,0.8-1.1,1.4-1.5c0.6-0.4,1.3-0.8,2.2-1
		c0.8-0.2,1.7-0.4,2.7-0.4c0.9,0,1.8,0.1,2.7,0.2c0.9,0.2,1.7,0.4,2.4,0.6v-1.6c0-1.5-0.4-2.8-1.3-3.7c-0.9-0.9-2.1-1.4-3.6-1.4
		c-0.8,0-1.7,0.2-2.6,0.5c-0.9,0.3-1.8,0.8-2.7,1.4l-0.6-1.1c2.1-1.4,4.1-2.1,6-2.1c2,0,3.5,0.6,4.7,1.7c1.1,1.1,1.7,2.7,1.7,4.7v8
		c0,0.5,0.2,0.8,0.7,0.8v1.4c-0.1,0-0.2,0-0.3,0h-0.3c-0.4,0-0.7-0.1-1-0.4c-0.3-0.3-0.5-0.6-0.5-1V148c-0.8,1-1.7,1.7-2.9,2.3
		C203.8,150.8,202.6,151,201.2,151"/>
</g>
<path fill="#C6C6C6" d="M218.8,150.7h1.6v-16.3h-1.6V150.7z M218.8,130.7h1.6v-2.9h-1.6V130.7z"/>
<g>
	<path fill="#C6C6C6" d="M237.6,135.8c-1.5,0-2.8,0.5-3.9,1.3c-1.1,0.8-1.9,2-2.3,3.4v10.2h-1.6v-16.3h1.5v4
		c0.6-1.1,1.3-2.1,2.2-2.8c0.9-0.7,1.9-1.1,3-1.2c0.2,0,0.4,0,0.6,0c0.2,0,0.3,0,0.4,0V135.8z"/>
</g>
</svg>
