<?xml version="1.0" encoding="utf-8"?>
<!-- Generator: Adobe Illustrator 19.0.1, SVG Export Plug-In . SVG Version: 6.00 Build 0)  -->
<svg version="1.1" id="Laag_1" xmlns="http://www.w3.org/2000/svg" xmlns:xlink="http://www.w3.org/1999/xlink" x="0px" y="0px"
	 viewBox="0 0 237.6 23.2" enable-background="new 0 0 237.6 23.2" xml:space="preserve">
<polygon fill="#65CBC9" points="18.2,22.9 18.2,8.2 12.4,19.1 10.1,19.1 4.3,8.2 4.3,22.9 0,22.9 0,0.6 4.6,0.6 11.2,13.3 17.9,0.6 
	22.5,0.6 22.5,22.9 "/>
<g>
	<path fill="#65CBC9" d="M37.1,20.1c0.7,0,1.4-0.1,2-0.4c0.6-0.2,1.1-0.6,1.5-1c0.5-0.4,0.7-0.8,0.7-1.2v-1.9
		c-0.5-0.2-1-0.3-1.6-0.5C39.1,15.1,38.5,15,38,15c-1.1,0-2,0.2-2.7,0.7c-0.7,0.5-1,1.1-1,1.9c0,0.7,0.3,1.3,0.8,1.8
		C35.6,19.9,36.3,20.1,37.1,20.1 M35.9,23.2c-0.8,0-1.5-0.1-2.2-0.4c-0.7-0.3-1.3-0.6-1.8-1.1c-0.5-0.5-0.9-1-1.2-1.6
		c-0.3-0.6-0.4-1.3-0.4-2.1c0-0.8,0.2-1.5,0.5-2.1c0.3-0.7,0.8-1.2,1.4-1.7c0.6-0.5,1.4-0.8,2.2-1.1c0.9-0.3,1.8-0.4,2.8-0.4
		c0.7,0,1.4,0.1,2.1,0.2c0.7,0.1,1.3,0.3,1.9,0.5v-0.9c0-1.1-0.3-1.9-0.9-2.5c-0.6-0.6-1.5-0.9-2.7-0.9c-0.9,0-1.7,0.2-2.6,0.5
		c-0.8,0.3-1.7,0.8-2.6,1.4l-1.3-2.7c2.1-1.4,4.4-2.1,6.8-2.1c2.4,0,4.2,0.6,5.5,1.7c1.3,1.2,2,2.8,2,5v5.1c0,0.4,0.1,0.8,0.3,0.9
		c0.2,0.2,0.5,0.3,0.9,0.3v3.6c-0.4,0.1-0.8,0.1-1.1,0.2c-0.3,0-0.6,0-0.9,0c-0.8,0-1.4-0.2-1.8-0.5c-0.4-0.3-0.7-0.8-0.8-1.4
		l-0.1-0.9c-0.7,1-1.6,1.7-2.7,2.2C38.2,23,37.1,23.2,35.9,23.2"/>
	<path fill="#65CBC9" d="M59.9,20.1c0.7,0,1.4-0.1,2-0.4c0.6-0.2,1.1-0.6,1.5-1c0.5-0.4,0.7-0.8,0.7-1.2v-1.9
		c-0.5-0.2-1-0.3-1.6-0.5c-0.6-0.1-1.1-0.2-1.7-0.2c-1.1,0-2,0.2-2.7,0.7c-0.7,0.5-1,1.1-1,1.9c0,0.7,0.3,1.3,0.8,1.8
		C58.4,19.9,59.1,20.1,59.9,20.1 M58.7,23.2c-0.8,0-1.5-0.1-2.2-0.4c-0.7-0.3-1.3-0.6-1.8-1.1c-0.5-0.5-0.9-1-1.2-1.6
		c-0.3-0.6-0.4-1.3-0.4-2.1c0-0.8,0.2-1.5,0.5-2.1c0.3-0.7,0.8-1.2,1.4-1.7c0.6-0.5,1.4-0.8,2.2-1.1c0.9-0.3,1.8-0.4,2.8-0.4
		c0.7,0,1.4,0.1,2.1,0.2c0.7,0.1,1.3,0.3,1.9,0.5v-0.9c0-1.1-0.3-1.9-0.9-2.5c-0.6-0.6-1.5-0.9-2.7-0.9c-0.9,0-1.7,0.2-2.6,0.5
		c-0.8,0.3-1.7,0.8-2.6,1.4L54,8.3c2.1-1.4,4.4-2.1,6.8-2.1c2.4,0,4.2,0.6,5.5,1.7c1.3,1.2,2,2.8,2,5v5.1c0,0.4,0.1,0.8,0.3,0.9
		c0.2,0.2,0.5,0.3,0.9,0.3v3.6C69,23,68.7,23,68.3,23.1c-0.3,0-0.6,0-0.9,0c-0.8,0-1.4-0.2-1.8-0.5c-0.4-0.3-0.7-0.8-0.8-1.4
		l-0.1-0.9c-0.7,1-1.6,1.7-2.7,2.2C61,23,59.9,23.2,58.7,23.2"/>
	<path fill="#65CBC9" d="M83.5,23.2c-0.7,0-1.4-0.1-2.1-0.2c-0.7-0.1-1.4-0.3-2.1-0.4c-0.7-0.2-1.3-0.4-2-0.7
		c-0.6-0.3-1.2-0.6-1.7-0.9l1.7-2.9c2.1,1.4,4.1,2,6.1,2c0.9,0,1.6-0.2,2.1-0.5c0.5-0.3,0.8-0.8,0.8-1.4c0-0.6-0.3-1-0.9-1.3
		c-0.6-0.3-1.6-0.6-3-0.9c-1.1-0.3-2-0.5-2.7-0.8c-0.8-0.3-1.4-0.6-1.8-0.9c-0.5-0.4-0.8-0.8-1-1.2c-0.2-0.5-0.3-1-0.3-1.6
		c0-0.8,0.2-1.6,0.5-2.3c0.3-0.7,0.8-1.2,1.4-1.7c0.6-0.5,1.3-0.8,2.1-1.1c0.8-0.2,1.7-0.4,2.6-0.4c1.2,0,2.3,0.2,3.5,0.5
		c1.2,0.4,2.2,0.9,3.2,1.5l-1.7,2.6c-0.9-0.6-1.8-1-2.6-1.3c-0.8-0.3-1.6-0.4-2.4-0.4c-0.8,0-1.4,0.1-1.9,0.4
		c-0.5,0.3-0.8,0.8-0.8,1.4c0,0.6,0.2,1,0.7,1.2c0.5,0.2,1.4,0.5,2.6,0.8c1.2,0.3,2.2,0.6,3,0.9c0.8,0.3,1.5,0.6,2,1
		c0.5,0.4,0.9,0.8,1.2,1.3c0.2,0.5,0.4,1.1,0.4,1.8c0,0.8-0.2,1.5-0.5,2.2c-0.3,0.6-0.8,1.2-1.4,1.6c-0.6,0.4-1.3,0.8-2.1,1
		C85.5,23.1,84.5,23.2,83.5,23.2"/>
	<path fill="#C6C6C6" d="M100.4,11.6c0-1.3,0.2-2.7,0.7-4c0.5-1.3,1.2-2.5,2.1-3.6c0.9-1,2-1.9,3.3-2.6c1.3-0.7,2.8-1,4.5-1
		c2,0,3.7,0.5,5.1,1.4c1.4,0.9,2.4,2.1,3.1,3.5l-1.3,0.8c-0.4-0.8-0.8-1.4-1.4-1.9c-0.5-0.5-1.1-0.9-1.7-1.3
		c-0.6-0.3-1.3-0.6-1.9-0.7c-0.7-0.1-1.3-0.2-2-0.2c-1.4,0-2.7,0.3-3.8,0.9c-1.1,0.6-2,1.3-2.8,2.2c-0.8,0.9-1.3,2-1.7,3.1
		c-0.4,1.2-0.6,2.3-0.6,3.5c0,1.3,0.2,2.6,0.7,3.8c0.5,1.2,1.1,2.2,1.9,3.2c0.8,0.9,1.7,1.6,2.8,2.2c1.1,0.5,2.3,0.8,3.5,0.8
		c0.7,0,1.4-0.1,2.1-0.3c0.7-0.2,1.4-0.4,2-0.8c0.7-0.4,1.3-0.8,1.8-1.4c0.6-0.6,1-1.2,1.4-2l1.3,0.7c-0.4,0.8-0.9,1.6-1.5,2.2
		c-0.6,0.6-1.4,1.2-2.1,1.6c-0.8,0.4-1.6,0.8-2.5,1c-0.9,0.2-1.8,0.3-2.6,0.3c-1.5,0-2.9-0.3-4.2-1c-1.3-0.7-2.4-1.5-3.3-2.6
		c-0.9-1.1-1.6-2.3-2.1-3.7C100.7,14.4,100.4,13,100.4,11.6"/>
	<path fill="#C6C6C6" d="M132.8,23.2c-3.5,0-5.2-2.4-5.2-7.2V6.6h1.6v9.2c0,4,1.4,6,4.1,6c0.7,0,1.4-0.1,2-0.4
		c0.7-0.2,1.3-0.6,1.8-1c0.6-0.4,1.1-0.9,1.5-1.6c0.4-0.6,0.8-1.3,1-2V6.6h1.6v14.1c0,0.5,0.2,0.8,0.7,0.8v1.4c-0.1,0-0.2,0-0.3,0
		h-0.3c-0.4,0-0.8-0.1-1.1-0.4c-0.3-0.3-0.4-0.6-0.4-1V19c-0.7,1.3-1.7,2.3-2.9,3.1C135.6,22.8,134.3,23.2,132.8,23.2"/>
	<path fill="#C6C6C6" d="M151,0h1.6v19.7c0,0.6,0.2,1.1,0.5,1.4c0.3,0.4,0.8,0.5,1.4,0.5c0.2,0,0.5,0,0.8-0.1
		c0.3-0.1,0.6-0.1,0.9-0.2l0.3,1.3c-0.4,0.1-0.8,0.3-1.3,0.4c-0.5,0.1-1,0.1-1.3,0.1c-0.9,0-1.6-0.3-2.1-0.8
		c-0.5-0.5-0.8-1.2-0.8-2.2V0z"/>
</g>
<path fill="#C6C6C6" d="M163.4,22.9h1.6V6.6h-1.6V22.9z M163.4,2.9h1.6V0h-1.6V2.9z"/>
<g>
	<path fill="#C6C6C6" d="M187.8,22.9h-1.6v-9.1c0-2.1-0.3-3.6-0.9-4.6c-0.6-1-1.6-1.4-2.9-1.4c-0.7,0-1.4,0.1-2.1,0.4
		c-0.7,0.2-1.3,0.6-1.9,1.1c-0.6,0.5-1.1,1-1.5,1.6c-0.4,0.6-0.8,1.3-1,2v10.1h-1.6V6.6h1.4v3.9c0.3-0.6,0.8-1.2,1.3-1.7
		c0.5-0.5,1.1-1,1.7-1.3c0.6-0.4,1.3-0.6,2-0.8c0.7-0.2,1.4-0.3,2.1-0.3c1.8,0,3,0.6,3.8,1.9c0.7,1.2,1.1,3,1.1,5.3V22.9z"/>
	<path fill="#C6C6C6" d="M201.5,21.9c1.2,0,2.3-0.2,3.4-0.7c1-0.4,1.8-1.1,2.3-1.8c0.4-0.4,0.5-0.8,0.5-1.3v-2.9
		c-1.6-0.6-3.2-0.9-4.9-0.9c-1.6,0-2.9,0.3-4,1c-1,0.7-1.5,1.5-1.5,2.6c0,0.5,0.1,1.1,0.3,1.5c0.2,0.5,0.5,0.9,0.9,1.2
		c0.4,0.3,0.8,0.6,1.3,0.8C200.4,21.8,200.9,21.9,201.5,21.9 M201.2,23.2c-0.8,0-1.5-0.1-2.1-0.4c-0.7-0.3-1.2-0.6-1.7-1.1
		c-0.5-0.4-0.9-1-1.1-1.6c-0.3-0.6-0.4-1.3-0.4-2c0-0.7,0.2-1.4,0.5-1.9c0.3-0.6,0.8-1.1,1.4-1.5c0.6-0.4,1.3-0.8,2.2-1
		c0.8-0.2,1.7-0.4,2.7-0.4c0.9,0,1.8,0.1,2.7,0.2c0.9,0.2,1.7,0.4,2.4,0.6v-1.6c0-1.5-0.4-2.8-1.3-3.7c-0.9-0.9-2.1-1.4-3.6-1.4
		c-0.8,0-1.7,0.2-2.6,0.5c-0.9,0.3-1.8,0.8-2.7,1.4l-0.6-1.1c2.1-1.4,4.1-2.1,6-2.1c2,0,3.5,0.6,4.7,1.7c1.1,1.1,1.7,2.7,1.7,4.7v8
		c0,0.5,0.2,0.8,0.7,0.8v1.4c-0.1,0-0.2,0-0.3,0h-0.3c-0.4,0-0.7-0.1-1-0.4c-0.3-0.3-0.5-0.6-0.5-1v-1.4c-0.8,1-1.7,1.7-2.9,2.3
		C203.8,22.9,202.6,23.2,201.2,23.2"/>
</g>
<path fill="#C6C6C6" d="M218.8,22.9h1.6V6.6h-1.6V22.9z M218.8,2.9h1.6V0h-1.6V2.9z"/>
<g>
	<path fill="#C6C6C6" d="M237.6,8c-1.5,0-2.8,0.5-3.9,1.3c-1.1,0.8-1.9,2-2.3,3.4v10.2h-1.6V6.6h1.5v4c0.6-1.1,1.3-2.1,2.2-2.8
		c0.9-0.7,1.9-1.1,3-1.2c0.2,0,0.4,0,0.6,0c0.2,0,0.3,0,0.4,0V8z"/>
</g>
</svg>
