<?xml version="1.0" encoding="utf-8"?>
<!-- Generator: Adobe Illustrator 19.0.1, SVG Export Plug-In . SVG Version: 6.00 Build 0)  -->
<svg version="1.1" id="Laag_1" xmlns="http://www.w3.org/2000/svg" xmlns:xlink="http://www.w3.org/1999/xlink" x="0px" y="0px"
	 viewBox="0 0 188 103.7" enable-background="new 0 0 188 103.7" xml:space="preserve">
<path fill="#FFFFFF" d="M60,30.5c-0.7-14.9-13-26.6-28-26.6S4.8,15.6,4.1,30.5l1.3,0.1H4.1v51.9h2.7V30.6
	C7.4,17.1,18.5,6.6,32.1,6.6s24.6,10.6,25.3,24.1v72.7H60L60,30.5l-1.3,0.1L60,30.5z"/>
<path fill="#FFFFFF" d="M55.9,30.5C55.3,17.8,44.8,7.8,32.1,7.8c-12.8,0-23.3,10-23.9,22.7l1.3,0.1H8.2v67.7h2.7V30.6
	c0.6-11.3,9.9-20.2,21.2-20.2s20.7,8.9,21.2,20.2v72.7H56L55.9,30.5l-1.3,0.1L55.9,30.5z"/>
<path fill="#FFFFFF" d="M51.9,30.5C51.3,20,42.6,11.7,32.1,11.7c-10.6,0-19.3,8.3-19.8,18.8l1.3,0.1h-1.3v62.9h2.7V30.6
	c0.5-9.1,8-16.3,17.1-16.3c9.2,0,16.7,7.1,17.1,16.3v72.7h2.7L51.9,30.5l-1.3,0.1L51.9,30.5z"/>
<path fill="#FFFFFF" d="M47.8,30.5c-0.4-8.4-7.3-14.9-15.7-14.9s-15.3,6.6-15.7,14.9l1.3,0.1h-1.3v72.7H19V30.6
	c0.4-6.9,6.1-12.4,13-12.4c7,0,12.7,5.4,13,12.4v72.7h2.7L47.8,30.5l-1.3,0.1L47.8,30.5z"/>
<path fill="#FFFFFF" d="M77.2,0c-8.5,0-16.5,3.3-22.5,9.3C48.8,3.5,40.9,0,32.1,0C14.9,0,0.8,13.4,0,30.5l1.3,0.1H0V87h2.7V30.6
	c0.8-15.7,13.7-28,29.4-28c15.7,0,28.6,12.3,29.4,28v72.7h2.7V30.6c0.4-6.9,6.1-12.4,13-12.4c7,0,12.7,5.4,13,12.4v72.7h2.7V30h0
	c-0.6-8.1-7.4-14.5-15.7-14.5c-6.1,0-11.4,3.5-14,8.6c-0.2-0.6-0.3-1.2-0.5-1.8c3.2-5,8.6-8,14.5-8c9.2,0,16.7,7.1,17.1,16.3v1.3H97
	V29h-0.1c-1.2-9.8-9.6-17.3-19.6-17.3c-6.2,0-11.9,2.8-15.6,7.7c-0.2-0.5-0.4-0.9-0.6-1.4l0,0c4.1-4.8,10-7.5,16.2-7.5
	c9.4,0,17.6,6.1,20.3,15.1l2.5-0.8c-3.1-10.1-12.3-17-22.9-17c-6.7,0-13.1,2.8-17.6,7.7c-0.2-0.4-0.5-0.8-0.7-1.1
	c4.8-5.1,11.3-7.8,18.3-7.8c9.9,0,19,5.9,23.1,14.9l2.4-1.1c-4.5-10-14.5-16.5-25.5-16.5c-7.6,0-14.6,2.9-19.9,8.3
	c-0.3-0.3-0.6-0.7-0.8-1C62,5.7,69.3,2.7,77.2,2.7C88,2.7,98,8.6,103.1,18.1l2.3-1.3C99.8,6.5,89,0,77.2,0"/>
<rect x="94.3" y="71.7" fill="#FFFFFF" width="2.7" height="31.6"/>
<rect x="98.4" y="79.4" fill="#FFFFFF" width="2.7" height="23.9"/>
<rect x="102.5" y="84.7" fill="#FFFFFF" width="2.7" height="18.6"/>
<rect x="106.6" y="88.9" fill="#FFFFFF" width="2.7" height="14.3"/>
<g>
	<path fill="#FFFFFF" d="M142.1,103.7c-28.6,0-51.9-23.3-51.9-51.9C90.2,23.3,113.5,0,142.1,0c17.2,0,33.3,8.5,43,22.8l-2.2,1.5
		c-9.2-13.6-24.4-21.7-40.8-21.7c-27.1,0-49.2,22.1-49.2,49.2c0,27.1,22.1,49.2,49.2,49.2c18.3,0,35-10.1,43.6-26.3L188,76
		C179,93.1,161.4,103.7,142.1,103.7"/>
	<path fill="#FFFFFF" d="M141.7,99.2c-26.1,0-47.3-21.2-47.3-47.3c0-26.1,21.2-47.3,47.3-47.3c12.2,0,23.9,4.7,32.7,13.1l-1.8,1.9
		c-8.3-8-19.3-12.4-30.9-12.4c-24.6,0-44.7,20-44.7,44.7c0,24.6,20,44.7,44.7,44.7c14.8,0,28.6-7.3,37-19.6l2.2,1.5
		C172,91.4,157.4,99.2,141.7,99.2"/>
	<path fill="#FFFFFF" d="M141.3,94.6L141.3,94.6c-23.6,0-42.8-19.2-42.8-42.8c0-23.6,19.2-42.8,42.8-42.8c6.8,0,13.3,1.5,19.3,4.6
		l-1.2,2.4c-5.6-2.8-11.7-4.3-18.1-4.3c-22.1,0-40.1,18-40.1,40.1c0,22.1,18,40.1,40.1,40.1h0c6,0,11.8-1.3,17.1-3.8l1.1,2.4
		C153.8,93.3,147.7,94.6,141.3,94.6"/>
	<path fill="#FFFFFF" d="M140.9,90.1c-21.1,0-38.2-17.1-38.2-38.2c0-21.1,17.1-38.2,38.2-38.2c12.2,0,23.4,5.6,30.7,15.4l-2.1,1.6
		c-6.8-9.1-17.2-14.3-28.5-14.3c-19.6,0-35.6,16-35.6,35.6c0,19.6,16,35.6,35.6,35.6c13.2,0,25.3-7.3,31.5-19l2.3,1.2
		C168.1,82.3,155.1,90.1,140.9,90.1"/>
	<path fill="#FFFFFF" d="M140.5,85.5c-18.6,0-33.7-15.1-33.7-33.7s15.1-33.7,33.7-33.7c12.4,0,23.7,6.8,29.6,17.6l-2.3,1.3
		c-5.4-10-15.9-16.2-27.3-16.2c-17.1,0-31,13.9-31,31c0,17.1,13.9,31,31,31c8.5,0,16.5-3.4,22.4-9.5l1.9,1.8
		C158.4,81.9,149.8,85.5,140.5,85.5"/>
</g>
</svg>
